# xmcd CD database file
#
# Track frame offsets:
#	150
#	12959
#	30759
#	53382
#	70115
#	99060
#	121196
#	154640
#	168987
#	198296
#	217888
#	251926
#
# Disc length: 3631 seconds
#
# Revision: 8
# Processed by: cddbd v1.5.1PL0 Copyright (c) Steve Scherf et al.
# Submitted via: CDex 1.51
#
DISCID=850e2d0c
DTITLE=Stephane Grappelli - Paris Jazz Concert (Olympia, Mar. 29th, 1983) Delta Music GmbH
DYEAR=2002
DGENRE=Jazz
TTITLE0=Them There Eyes
TTITLE1=Round About Midnight
TTITLE2=Pent Up House
TTITLE3=Tiger Rag
TTITLE4=Love For Sale
TTITLE5=Minor Swing
TTITLE6=Honeysuckle Rose
TTITLE7=Are You In The Mood
TTITLE8=Tears
TTITLE9=It Don't Mean A Thing
TTITLE10=Sweet Georgia Brown
TTITLE11=Nuages/Daphne
EXTD=YEAR: 2002
EXTT0=
EXTT1=
EXTT2=
EXTT3=
EXTT4=
EXTT5=
EXTT6=
EXTT7=
EXTT8=
EXTT9=
EXTT10=
EXTT11=
PLAYORDER=
